<?xml version="1.0" encoding="UTF-8"?><svg viewBox="0 0 3364.7 3364.7" xmlns="http://www.w3.org/2000/svg"><defs><radialGradient id="b" cx="217.76" cy="3291" r="4271.9" gradientUnits="userSpaceOnUse"><stop stop-color="#6aed80" offset=".09"/><stop stop-color="#3878d8" offset=".78"/></radialGradient><radialGradient id="a" cx="2330.6" cy="3183" r="3759.3" gradientUnits="userSpaceOnUse"><stop stop-color="#53e0db" stop-opacity="0" offset=".64"/><stop stop-color="#53e0db" offset="1"/></radialGradient></defs><rect width="3364.7" height="3364.7" fill="url(#b)"/><rect width="3364.7" height="3364.7" fill="url(#a)"/><g transform="translate(350 300) scale(110)" stroke="#fff" stroke-linecap="round" stroke-linejoin="round" stroke-width="2"><path d="m6.3414 6c0.82367-2.3304 3.0462-4 5.6586-4 3.3137 0 6 2.6863 6 6 2.2091 0 4 1.7909 4 4 0 2.2091-1.7909 4-4 4h-11c-2.7614 0-5-2.2386-5-5 0-2.531 1.8806-4.6228 4.3207-4.9542" fill-opacity="0"/><path d="m7 20-1 2"/><path d="m12 20-1 2"/><path d="m17 20-1 2"/></g></svg>
